<svg xmlns="http://www.w3.org/2000/svg" viewBox="0 0 283.31 280.79"><title>close</title><g id="Layer_2" data-name="Layer 2"><g id="Layer_1-2" data-name="Layer 1"><path d="M250.53,7.71l1.66,2.12c-3,3-5.92,5.93-8.82,8.81L203.59,58.22c-.54.54-1,1.19-1.45,1.76-1,1.11-1.35,2.26-.08,3.38a2.52,2.52,0,0,0,3.69,0c3.06-2.73,6.14-5.45,9.16-8.23Q235.63,36.1,256.3,17c1.53-1.43,2.49-1.36,3.56.68L258,19.54c-12.51,12.65-25.06,25.27-37.52,38-3.14,3.19-6,6.67-9,10a13.33,13.33,0,0,0-.93,1.3,2.38,2.38,0,0,0,.35,3.45,2.27,2.27,0,0,0,3.44.09c4.22-3.71,8.57-7.29,12.58-11.22,12.36-12,24.58-24.24,36.85-36.38l1.5-1.5,2,2c-4.16,4.4-8.3,8.73-12.38,13.1q-17.75,19-35.47,38c-1.1,1.17-1.79,2.34-.46,3.74s2.7,1,4-.16c4.84-4.51,9.76-8.93,14.47-13.57,8-7.84,15.8-15.81,23.69-23.73l11.83-11.83,2,1.73c-1.75,2.14-3.4,4.2-5.1,6.21Q250.41,61.72,231,84.68a88.2,88.2,0,0,1-16.34,15.14,34.77,34.77,0,0,1-22.89,6.86c-7.36-.45-13.5,2.47-18.67,7.51-3.81,3.72-7.5,7.56-11.23,11.36-13.64,13.88-27.54,27.53-40.87,41.71-22.76,24.2-43.24,50.17-59.28,79.43-3.88,7.09-8.26,13.84-14.41,19.26-5.64,5-11.8,8.25-19.67,7-16.32-2.62-22-21.65-13.6-33.23,5.36-7.36,12.35-12.7,20.15-17.12C49.36,214,64.21,204.8,78.07,194.08a454.2,454.2,0,0,0,38.49-32.83c11.62-11.27,23.13-22.67,34.69-34,5.81-5.7,11.69-11.31,17.44-17.07,5.15-5.16,8.3-11.33,7.78-18.78-.77-11,3.87-19.69,10.46-27.85S202.16,48.93,210.12,42c12.22-10.62,24.65-21,37-31.47C248.16,9.67,249.22,8.81,250.53,7.71Z"/><polygon points="247.89 4.52 247.3 4.71 246.57 6.15 247.89 4.52"/><path d="M241.4,11.85c.29-.1.32.14.61,0l3.14-5.06C242.52,7.67,243.13,11.3,241.4,11.85Z"/><path d="M240,12.78a4.2,4.2,0,0,0-2.28,2.9C237.88,14.67,241,13.19,240,12.78Z"/><path d="M118.24,156.14a5.47,5.47,0,0,0,.45-.51A1.49,1.49,0,0,0,118.24,156.14Z"/><path d="M82.29,191.37v.87c6.65-6.75,15.67-12.5,22.79-19.52l-.35.63c9.63-8.23,18-17.09,26.41-25.74l25.5-26.4c-.22.32-.18.56-.41.9a16.25,16.25,0,0,1,2.35-3.17c.36-.14,0,.49-.3.84,2.28-1.44,4.93-4.29,7.38-7l3.41-3.74a25.4,25.4,0,0,1,2.47-2.57c.78-1.26.7-2.06,0-1.6a20.72,20.72,0,0,0,3.55-13.31A34.72,34.72,0,0,1,177.31,76c4-9.93,11.08-18,18.36-25.08.83-.53,1.17-.41,1.23.06,2.93-3.18,6.11-6.17,9.27-9.1s6.47-5.84,9.8-8.69c6.68-5.7,13.59-11.23,20.33-16.78.2-.8-1.69.77-.7-.73-4.68,3.18-7.06,7.57-11.52,10.2l.19-.78c-3,2.17.2,1.38-3.12,3.41-1.41.69-.1-.69-.66-.26-5.88,5.24-12.42,10.28-17.27,15.87-2.05.39-6.53,5.42-9.39,6.72-1.28,1.7-2.88,3.08-3,4.13A65.27,65.27,0,0,0,177.59,72a37.93,37.93,0,0,0-3.65,10.7,34,34,0,0,0-.5,5.7c0,1,0,1.9.09,2.85s.09,1.56.07,2.35a18.84,18.84,0,0,1-2.37,8.75,24.67,24.67,0,0,1-2.67,3.92c-.51.62-1.05,1.23-1.62,1.82L165.1,110q-7.46,7.45-15,14.85c-8.05,10.64-21,20-31.71,31.48-.12,0-.16,0-.13-.16a107.34,107.34,0,0,1-13.18,13.08l-3.31,4Q91,181.77,79.93,190.12t-22.59,16c-7.76,5-15.73,9.82-23.82,14.4-8.28,4.62-16.22,10.51-22,18.61-6.75,10-4.54,24,4.26,31.54a24,24,0,0,0,15.82,5.62,22.52,22.52,0,0,0,8.34-1.8A31.29,31.29,0,0,0,47,270.29c8.49-6.46,14-15.65,18.51-24.43s9.53-17.39,14.83-26.2c.12.16.4-.06-.14.86,6.38-10,13.48-18.16,20.24-27l.13.15a273,273,0,0,1,28-32.09c10.06-10.22,20-20.35,28.78-30.53l8.75-8.83c3-2.92,5.9-6.1,9-8.93a23.81,23.81,0,0,1,11.17-5.56,26.07,26.07,0,0,1,6.39-.3,34.94,34.94,0,0,0,6.7-.43,35.48,35.48,0,0,0,12.54-4.73,72.35,72.35,0,0,0,10.57-8.15,90.8,90.8,0,0,0,9.07-9.65l8.36-10.16.37.06c4.33-5.44,8.74-10.67,13.33-16.08l14.23-16.74,3.67-4.36c.34-.4.56-.68.76-.94l.64-.81,1.22-1.57,1.17-1.51.28-.37c0-.07.13-.12.11-.19l-.25-.21-1-.86-.48-.43c-.16-.13-.35-.38-.44-.17l-.67.63L271.58,32l-5.24,4.89L263,40.05l-4.07,4c-4.58,4.2-10.06,9.39-15.75,15.06L224.29,78c-1.49,1.39-2.66,3.23-4.24,2.57a2.79,2.79,0,0,1-1.56-1.8,3.1,3.1,0,0,1,1-2.26l7.28-8.17c4.88-5.39,9.84-10.67,14.94-15.7C250.31,45.19,258.67,34.48,267,25v.61l-2.06-1.91h.76A115.06,115.06,0,0,1,253,35.55c-6.6,5.47-12.94,11.11-19.1,16.89-3.1,2.86-6.06,5.88-9.15,8.71s-6.23,5.61-9.3,8.46l-1.15,1.06c-.36.33-.83.8-1.05,1-.57.37-.74.39-1.4-.06a2.5,2.5,0,0,1-.68-.79.93.93,0,0,1,0-.74,4.27,4.27,0,0,1,.61-1.09,8,8,0,0,1,.88-1.22l8-9.75,17-19c7.48-7.06,14.64-14.42,21.74-21.79l-.12.82a3.2,3.2,0,0,0-1-1.2c-.2-.12-.54,0-1,.37-.88.77-1.89,1.78-2.83,2.66l-5.71,5.47L237.3,36.12c-7.67,7.12-15.39,14.06-23.48,20.46a80.29,80.29,0,0,1-8.15,7.69,3,3,0,0,1-3.32,0,3.92,3.92,0,0,1-1.17-1.16,2.16,2.16,0,0,1-.29-1.73,6.87,6.87,0,0,1,1.83-2.46,20.16,20.16,0,0,1,2.13-2c5.93-5.11,12.09-10.28,17.65-16.1l-.75.06c5.13-3,7.68-10.52,11.77-11.52l-.36.49c3-1.37,3.2-6.85,5.44-7.23l0-.73c2.51-2.73.74.13,2.92-1.73.72-.81-.41-1,1.4-2.36,1.92,1.24,6.07-6.75,8-5.15-1.43,1.43,2.94-1.56.09,2a22.09,22.09,0,0,0,3-3l1.62-1.93-1.41-1.52c-1.1-1.18-2.16-2.06-2.41-1.52-1.21.28-3.48-1-1.85,2.48l1.12.09a11.78,11.78,0,0,0,.18,1.27L251.37,9a2.56,2.56,0,0,1-.5,0c-3.56,3.4-4.87,3-7.71,5.16,0,0,.08,0,.07.06-1,2.4-3.79,4.34-5.24,5.59l-.87.22c-1.5.14-2.65,5.28-2.75,3.06-6.81,7.35-15,15.44-22.88,23.34-.67,1.55-6.12,6-3.53,5.14a23.69,23.69,0,0,0-5.93,4,13.64,13.64,0,0,0-1.6,1.55l-.76.83a7.81,7.81,0,0,0-1,1.32,5.3,5.3,0,0,0-.71,2.07,4.85,4.85,0,0,0,.33,2.47,5.77,5.77,0,0,0,1.88,2.4c-.23,0-.51,0-1.19-.84a7.07,7.07,0,0,0,1.42,1.63,5.83,5.83,0,0,0,6.53.59,6.53,6.53,0,0,0,1.31-1,4.66,4.66,0,0,0,.55-.62l.82-1.09A9.6,9.6,0,0,1,214.55,61c-.34-1.7,7.91-6.53,9-10,.74-.22,1.12-.15,1.12.22,7.46-6.84,16.06-14,22.4-19.78a55.84,55.84,0,0,1,7.48-7.54c1.4-1.23,2.8-2.46,4.11-3.68l.53-.51a9.27,9.27,0,0,1-1-1.75,2,2,0,0,1-.17-.76,3.94,3.94,0,0,1-1.38,1.62l-.2.16c-.05,0-.23.18-.18.15h0l.07.05c.05,0,.13.15.21.22l.66-4.29a17.33,17.33,0,0,0-1.6,2.41c-3.95,3.43-10.44,8.88-15,14.59l.33-.67c-5.69,5.92-12.84,13.29-16,18.12-3,.49-5.24,3.22-8.11,5.4-1.56,2.37-4.26,5.6-7.19,9.09a21.27,21.27,0,0,0-2.47,3.4,6,6,0,0,0-.66,4.12,6.69,6.69,0,0,0,5.31,4.91,5.49,5.49,0,0,0,3.94-1.06,5.9,5.9,0,0,0,.59-.49l.33-.32.58-.6,1.12-1.17c1.52-.25,5-4.89,6.1-4.3l4.89-5.17c1.58-1.81,3.22-3.62,4.9-5.44,3.36-3.63,6.89-7.3,10.52-10.94,7.28-7.31,15-14.52,22.65-21.44h-4.46L265,27.6,264.89,23q-5.19,5-10.23,9.6l.18-.32c-1.76,2.81-3.25,6.53-4.89,9.53-.29.16-.41,0,.06-.5-2.95,3.49-6.73,5.82-9.68,9.3-.12-.16-.12-.16.24-.83-2.53,3.5-6.74,5.82-9.51,10.15h-.42l-1.87,2.66c-.24-.33-.59-.83.68-2L219.34,71.37l-2.54,2.75a7.73,7.73,0,0,0-1.75,2.82,5.32,5.32,0,0,0-.15,2.65,5.56,5.56,0,0,0,1,2.16,7.19,7.19,0,0,0,1.21,1.3,6.25,6.25,0,0,0,1.82,1.07,5.37,5.37,0,0,0,2.49.29,5.88,5.88,0,0,0,2.06-.66,7.65,7.65,0,0,0,1.36-.92l.46-.42.13-.12.5-.51,4.58-4.63c1-1,1.47-1.56,2.23-2.37l2.36-2.57c3.4-3.67,8-8.55,12.83-13.56L251.48,55l.94.43.23.11c.08,0,.18.07.09.12l-.23.3-1,1.27c-1.4,1.78-3.3,4-5.33,6.31l-2.44,2.3a13.2,13.2,0,0,1,2.24-1.6l-2.35,2.17c-3.92,4.11-4.4,4.85-5.3,6.18a41.34,41.34,0,0,1-4,5.29,7.07,7.07,0,0,0-2,1.14c.22.15-.24.77-.76,1.32a20.4,20.4,0,0,1-1.59,1.43,3.21,3.21,0,0,0-.93,1c0,.09-.31.58-.5,1a6.51,6.51,0,0,0-.42,1.44c-.29.18-.81,0-.48-.65A77.31,77.31,0,0,1,217.31,95a42,42,0,0,1-12.24,7.67,29.47,29.47,0,0,1-6.91,1.76,32.24,32.24,0,0,1-3.56.26c-.59,0-1.19,0-1.78,0l-1.92-.08a25.41,25.41,0,0,0-15.56,4.71,45.71,45.71,0,0,0-4.63,4.86q-2.11,2.46-4.37,4.87c-3,3.22-6.12,6.4-9.25,9.6-6.28,6.4-12.64,12.82-18.16,19.59l-.23-.34c-3.69,4.27-7.57,8.48-11.57,12.65l-6.07,6.23q-3,3.16-6,6.37a345.37,345.37,0,0,0-23,26.66c-6.08,7.59-9.59,13.17-15,21.25l-.56-.08c-3.8,7.35-8.71,14.42-13.37,21.83s-9.1,14.75-14.49,21.34c.12-.44.25-.86.35-1.3-.53,1.3-2.47,3-4.13,4.27s-3,2.21-2.09,2.72a26,26,0,0,1-2.89,1,14.23,14.23,0,0,1-7.95,3,17.56,17.56,0,0,1-4.22-.33c-.68-.17-1.36-.37-2-.57l-1-.31-1-.44a21,21,0,0,1-7.09-5.08,29.16,29.16,0,0,1-5.4-8.18l.69.75c-1.69-3.38-2.2-8-1.35-10.74,0,.44.1.25.17,1.15a28.47,28.47,0,0,1,3.27-8.13,36.12,36.12,0,0,1,2.62-3.68q1.43-1.82,3-3.56a58.63,58.63,0,0,1,14.67-11.79l-.82,1.4c4.78-3.78,14.86-8.61,21.35-13.26l-.2.58L57.58,209l.5.58C66.85,204,74.44,197.73,82.29,191.37Z"/><path d="M158.29,119.78a.33.33,0,0,1-.1.06C158,120.11,158.12,120,158.29,119.78Z"/><path d="M242.15,14.91c.37-.3.68-.55,1-.79C243,14.08,242.46,14.65,242.15,14.91Z"/><path d="M4.42,3.1C8-3.55,67.13,50.55,122.16,106S275.32,250.19,280.67,256.39c8.44,14-12.17,30.38-23.1,20.95-24.21-20.89-90.95-111.46-96.65-117.26a22.62,22.62,0,0,0-20.18-6.53C103.88,160.64.12,11,4.42,3.1Z"/><path d="M.78,1.13A6.52,6.52,0,0,0,0,2.72a3.34,3.34,0,0,0,0,.55l.08.29.17.57a3,3,0,0,0,.42.93A5.39,5.39,0,0,1,.37,3.7l0-.39a3.74,3.74,0,0,1,.06-.7A6.23,6.23,0,0,1,.78,1.13Z"/><path d="M3.64,10.36c0-.23.24-.23.26-.46A20.64,20.64,0,0,1,.65,6.57C.33,9.06,3.81,9,3.64,10.36Z"/><path d="M4,11.49a2.22,2.22,0,0,0,1.77,1.9C4.9,13.23,4.65,10.79,4,11.49Z"/><path d="M81.3,115.91a3.63,3.63,0,0,0-.35-.3A.71.71,0,0,0,81.3,115.91Z"/><path d="M107.68,137.32l.71-.31c-5.62-3.07-10-8.83-15.07-13.13l.49.15C82.07,112,71,101,60,88.27c.22.16.44.1.67.26a7.69,7.69,0,0,1-2.13-1.64c0-.28.41,0,.64.18-1.35-3.46-7.05-7.69-7.73-10-.7-.71-1.35-.77-1.29-.11C41.81,66.76,33.3,55.56,25,45c-.23-.62-.05-.9.38-1-8-8.45-14-18.91-19.45-29.53C5.24,14.32,6,15.83,5,15c1.3,3.72,4.46,5.55,5.48,9l-.63-.14c1,2.31,1.27-.18,2.12,2.35.2,1.08-.65.1-.43.52,3,4.44,5.65,9.32,9.37,12.84-.16,1.59,3.16,4.74,3.48,6.9,1.11.9,1.8,2.09,2.66,2.13C37.24,64.09,49.45,78.62,61.46,93.3c7.16,5.59,12.3,15.17,20,22.48a.12.12,0,0,1-.16.13,84.29,84.29,0,0,1,9.06,8.74l3.06,1.86a143.18,143.18,0,0,0,13.26,13.15,96.14,96.14,0,0,0,15.43,11.12,47.19,47.19,0,0,0,9,4,21.68,21.68,0,0,0,10.26.87,19.55,19.55,0,0,1,15.8,4.28,19.87,19.87,0,0,1,3.31,3.42c1,1.29,2.08,2.72,3.11,4.06l6.08,8.21c4,5.43,7.94,10.78,12,16a350.55,350.55,0,0,0,25.93,30.74c-.17.09-.12.33-.62-.18,5.28,6,9.27,12.13,14.36,17.69l-.16.1c6.52,6.73,12.72,14.19,19.07,21.46l4.82,5.37c1.61,1.77,3.32,3.45,5,5.14s3.47,3.22,5.24,4.74a22.69,22.69,0,0,0,2.83,2.17,11.34,11.34,0,0,0,3.38,1.33A14.09,14.09,0,0,0,270,280a20.05,20.05,0,0,0,7.55-4.48,18.66,18.66,0,0,0,4.95-7.47,13.92,13.92,0,0,0,.07-9.08,14.33,14.33,0,0,0-.93-2.12,4.75,4.75,0,0,0-.65-1l-.82-.82c-1.05-1.09-2.14-2.08-3.22-3.1l-6.54-6-13.09-11.77.31-.24c-14.14-12-25.86-25.69-39.8-37.84-13.3-13.61-30.08-25.07-43.17-39.14-7.29-9.53-21.36-17.37-28-26.55-14.38-18-31.18-32.6-48.81-47.31C83.51,67.5,66.4,54.94,52.78,39.59c-8.09-5.47-14-14.93-22.57-21.56l0,.62c-2.05-3.63-8-3.87-8.51-7l.38.17c-1-2.16-5.36-.82-5.57-2.59l-.58.24c-2.1-1.29.13-.67-1.31-1.95-.63-.35-.79.66-1.84-.42.49-1-.86-1.77-2.19-2.45S7.9,3.35,8.28,2.17c1.4.61-1.83-1.87,1.55-.94A6.79,6.79,0,0,0,6.5,0,5.11,5.11,0,0,0,5,.1,3.39,3.39,0,0,0,3.38.93,2,2,0,0,0,2.75,2c-.06.28.09.27.22.32.41.42.64,1.11,1,1.46a.71.71,0,0,0,.7.21,1.67,1.67,0,0,0,.52-.22c.08,0,.25-.16.15-.15a.13.13,0,0,1-.08-.07.42.42,0,0,1,.07.11s0,.06,0,0a1.06,1.06,0,0,1,0-.19,1.36,1.36,0,0,1,0-.44c.59.8.47.46.57,1.07A4.45,4.45,0,0,1,8.3,5.93,13.43,13.43,0,0,0,9.94,8.1S9.93,8,10,8c1.83,0,3.32,1.71,4.24,2.55l.14.66c0,1.2,4.07.68,2.3,1.41A179.62,179.62,0,0,1,33.73,26c1.21.21,4.29,3.79,3.85,1.81.51,2.26,4.44,6.2,6,7.54a.42.42,0,0,1-.52-.16c1.8,4,4.64,1.94,6,6.08,1.47-.75,4.71,5,7.49,5.06q.16.85-.3,1c5,4.6,10,10.12,14.14,14.11,4.48,2.38,8.15,8.6,12.47,10.18,2.25,2.7,5.76,7.18,9.76,10.05l-.49-.17c4,3.76,9,8.5,12.47,10.32-.1,2.41,1.84,3.83,3.12,5.91,3.19,2,8.25,7.4,12.73,10.85,0,1.19,3.53,3,2.88,4.07,12.75,9.52,26.12,23.6,37.06,36.47l-.24-.11c2,1,4.84,1.72,7,2.64.09.22-.07.35-.4,0,2.36,2,3.64,4.78,6,6.73-.16.13-.16.13-.65-.08,2.45,1.59,3.65,4.78,6.75,6.44l-.08.36,1.87,1.16c-.31.26-.78.63-1.53-.26,18.86,18.37,40.13,35.38,59.72,54l-1-.39,4.29,3.07c-.16.12-.41,0-.65-.08,4.43,5,10.27,8.91,14.91,13.46-.15.12-1.13-.27-.62.51,4.27,2.48,4.71,6.29,8,6.29a.43.43,0,0,1-.62.5c5.12,4.27,10.3,8.82,15,13.43l.78.77a7.53,7.53,0,0,1,.42.75,10.85,10.85,0,0,1,.79,2,10.65,10.65,0,0,1,.31,4.24,14.05,14.05,0,0,1-3.91,7.73c-2.53,4.35-8.39,7.54-13.72,6.34a10.38,10.38,0,0,1-3.65-1.6l-.81-.61-.82-.74-1.65-1.49c-2.25-1.9-4.42-3.93-6.72-5.75l.34-.24c-11.41-10-20.48-23.39-30.54-35.33-3.94-5.17-7.08-8.28-11.14-13.39l.29-.44c-8.35-7.42-12.91-19.23-21.6-27l1,.21c-1.93-.76-4-5.72-5-4.07l-.81-1.94c-6.66-4.7-7.77-11.92-14.88-18.49l.73.23a27.2,27.2,0,0,1-4.75-5.67c.24.19.25,0,.71.41a16,16,0,0,0-3.76-5,18.14,18.14,0,0,0-5.65-3.36,25.15,25.15,0,0,0-12.88-1.11c.28-.3.56-.64.86-.93-.51.17-1.08.37-1.67.52a11.61,11.61,0,0,1-1.79.34,14.46,14.46,0,0,1-4.18-.34,54.4,54.4,0,0,1-8.23-2.85l.45-.2-2.61-.74.3-.7A119,119,0,0,1,107.68,137.32Z"/><path d="M59.13,87.07a.15.15,0,0,1,0,.07C59.34,87.26,59.27,87.19,59.13,87.07Z"/><path d="M10.54,8.66c-.23-.2-.42-.38-.6-.56C9.91,8.25,10.34,8.49,10.54,8.66Z"/></g></g></svg>