<svg xmlns="http://www.w3.org/2000/svg" viewBox="0 0 555.19 349.88"><defs><style>.cls-1{fill:#3d3d3d;}</style></defs><title>signature</title><g id="Layer_2" data-name="Layer 2"><g id="Layer_2-2" data-name="Layer 2"><path class="cls-1" d="M85,210.84h0v0Z"/><path class="cls-1" d="M85.08,211Z"/><path class="cls-1" d="M85.08,211h0Z"/><path class="cls-1" d="M85.15,211.26v0Z"/><path class="cls-1" d="M513,20.43Z"/><path class="cls-1" d="M513.15,20.3h0l0,0h0Z"/><path class="cls-1" d="M513,20.44h0S513,20.36,513,20.44Z"/><path class="cls-1" d="M513.14,20.34l0,0h0l0,0,.07.06,0-.06-.06,0Z"/><path class="cls-1" d="M513.12,20.27Z"/><path class="cls-1" d="M513,20.44Z"/><path class="cls-1" d="M513,20.41h0l.12.15A1.07,1.07,0,0,0,513,20.41Z"/><polygon class="cls-1" points="513.1 20.52 513.03 20.44 513.03 20.45 513.1 20.52"/><polygon class="cls-1" points="303.69 67.6 303.75 67.49 303.86 67.3 303.69 67.6"/><path class="cls-1" d="M304,67l0,0,0,0h0s0,0,0,0l0,0,0,0Z"/><path class="cls-1" d="M303.89,67.22l0,0h0C303.85,67.27,303.82,67.32,303.89,67.22Z"/><path class="cls-1" d="M304.13,66.82l0,0h0l-.09.09,0,0,0,0,0,0Z"/><path class="cls-1" d="M303.85,67.18s0,0,0,0a1,1,0,0,0,.08-.14Z"/><path class="cls-1" d="M304,67h0S304,67,304,67Z"/><path class="cls-1" d="M303.54,67.4h0l0,0Z"/><path class="cls-1" d="M303.32,67.37c.32-.31.24-.2.54-.48-.31.31.14-.12-.32.33l.38-.34-.07-.06Z"/><path class="cls-1" d="M304,66.79l-.1.09.05,0a.45.45,0,0,1,.09-.1Z"/><path class="cls-1" d="M303.54,67.4l.47-.46,0,0Z"/><path class="cls-1" d="M303.87,66.8l0,0h0l0,0Z"/><path class="cls-1" d="M302,66.62h0v0Z"/><path class="cls-1" d="M223.92,269.2s-.12,0-.17.06l-.38.16c0,.08-.09.14-.13.21l.53-.34Z"/><path class="cls-1" d="M211.62,273.21l.15,0Z"/><path class="cls-1" d="M223.2,267.94l0,0h0l.05,0h0v0Z"/><path class="cls-1" d="M223.24,269.63l-.09.05,0,0L223,270A2,2,0,0,0,223.24,269.63Z"/><path class="cls-1" d="M223.88,269.13Z"/><path class="cls-1" d="M272.77,223.2A1.43,1.43,0,0,1,273,223C273,223,272.85,223.13,272.77,223.2Z"/><path class="cls-1" d="M302.43,66.21h0l0,.06Z"/><path class="cls-1" d="M70.26,212.72l.6.08.15,0h.1l-.34,0Z"/><path class="cls-1" d="M555.14,8.09a13.93,13.93,0,0,0-.37-1.42,8.56,8.56,0,0,0-.36-1.09,6.6,6.6,0,0,0-.67-1.37c-.24-.21-.46-.42-.71-.6l-.77-.49a4.51,4.51,0,0,0-.64-.7,6.47,6.47,0,0,0-.5-.47l-.62-.44c-.28-.2-.34-.26-.79-.61a12.65,12.65,0,0,0-3.85-.84,21.88,21.88,0,0,0-3.14,0A29.12,29.12,0,0,0,538,.84a24.66,24.66,0,0,0-4,1.37,29.8,29.8,0,0,0-4.52,2.52c.07,0,.14-.07.06,0-2.11,1.83-4.54,4-6.88,5.92s-4.6,3.82-6.24,5.19l-1.45.93a14.45,14.45,0,0,0-2.34,1.93c-.44.43-.91.9-1.35,1.36l.31-.24.17-.13.08-.07s.05,0,.09.06l-.51.48-.14.13.53.62-.53-.62-.05.05-.15.14-.52.52c-.33.32-.6.57-.79.72-.37.31-.4.24.1-.43-4.33,3.43-8.76,7.06-13.52,10.56s-9.62,7.06-14.61,10.6c-10,7.09-20.36,14.24-30.63,21.23-2.68,2.25-15.78,10.63-10.92,8.14-5.56,2.87-21.05,13-26.76,16.8a4.65,4.65,0,0,1,1.28-1C403,94.22,401.94,97.08,390.84,103c-1.18,1.76-19.13,12.19-24.51,16.88-1.39.69-1.91.83-1.52.4-9.41,6.15-19.35,12.56-28.94,18.73l-1.79,1.15-.44.29-.18.11h0l-.07,0c-.08,0-.16.09-.19.08a4.61,4.61,0,0,0,.11-.49l0-.23,0-.11.07-.46.3-2c.77-5.37,1.27-10.52,1.59-15.32.17-8.21.36-18.12,0-27.74a112.2,112.2,0,0,0-1.2-14,62.63,62.63,0,0,0-1.33-6.34,44,44,0,0,0-1.88-5.52,42.06,42.06,0,0,0-1.78-4.52,30.47,30.47,0,0,0-2.73-4.8,25,25,0,0,0-4.06-4.57,22.77,22.77,0,0,0-5.53-3.5c-.52-.21-1-.47-1.56-.63l-1.61-.52L312,49.44c-.55-.14-1.11-.19-1.67-.28a34.12,34.12,0,0,0-6.7-.21A38.91,38.91,0,0,0,291,52.07l1.49-.69a62,62,0,0,0-13.09,6.78,104.91,104.91,0,0,0-11.69,9.21c-7.12,6.5-13.27,12.82-17.52,17.45-4.52,3.12-9.94,8.87-15.69,14.28-4.11,4.5-10.48,11.13-17.5,18.2s-14.77,14.59-21.41,21.06c-1.19.81-4,3.45-6.6,5.88s-5.13,4.68-5.7,4.75l-2.47,2.31-2.55,2.26-5.17,4.59-5.27,4.65c-1.78,1.56-3.56,3.14-5.41,4.65-7.38,6.12-15.16,12.15-23.33,17.88-4.09,2.85-8.27,5.65-12.57,8.28-2.14,1.33-4.3,2.67-6.49,3.89l-6.7,3.56c-.56.3-1.12.61-1.69.89l-1.72.79-3.45,1.6L103,205.93c-1.16.51-2.34,1-3.51,1.44s-2.38.93-3.53,1.34-2.38.77-3.58,1.12-2.41.68-3.63,1l-1.82.41c-.62.14-1.18.2-1.76.31,0-.1,0-.2,0-.26v0l0,.22h0v-.08l0-.24c0-.32,0,.13,0,.32h0s0-.11,0-.2a1.47,1.47,0,0,1,0,.2h0l0-.31v-.07c-.05-.37,0-.31,0-.18v-.13l0-.12,0,.26V211l0-.19c0-.18,0-.12,0,0a1.78,1.78,0,0,0,0,.2v0c0,.18,0-.06,0,.18l0-.19v0h0l0-.32c0,.2,0,.25,0,.26s0,.12,0,.41c0-.21-.09-.63,0-.23l0-.12c0,.05,0,.1.06.49h0c-.09-.66-.07-.55-.11-.82l.09.71,0-.16s0,0,0-.29c0,.26,0,.44.07.56h0c0-.16-.06-.39-.1-.68,0,.17.06.42.09.68h0c0-.08,0-.14,0,0h0v0h0c0-.14,0-.26,0-.32s0,0,0,.14c0,0,0,0,0,.19l-1,.13c-.65.08-1.28.12-1.92.18l-1.9.16c-.67.07-1.16.06-1.91.07l-.57,0a1.5,1.5,0,0,1-.28,0l-1-.07-1.9-.14-1-.07-1-.15-1-.15-.38-.05-.11,0-.16,0h.28a.65.65,0,0,0-.18,0l-.58-.1-.53-.1-.21,0-.27-.08-1.1-.3c-.73-.19-1.43-.47-2.15-.7s-1.43-.46-2.14-.77c-.33-.14-.74-.29-1-.41s-.57-.3-.93-.48c-.68-.36-1.35-.72-2-1.09a36.52,36.52,0,0,1-3.76-2.42l-1.79-1.32c-.58-.46-1.17-.92-1.72-1.4l-.42-.36-.36-.34-.8-.77c-.53-.52-1-1.05-1.55-1.59a65.64,65.64,0,0,1-5.59-6.79l.51.6A87.42,87.42,0,0,1,38.16,184l-1.63-2.39c-.28-.4-.53-.8-.77-1.2L35,179.19c-.93-1.67-1.86-3.31-2.67-4.95-.23-.69-.1-.65.5.76a103.68,103.68,0,0,1-4.95-13.95c-1.33-4.7-2.45-9.44-3.57-14.35.12.06.12.06.57,1.63-.59-2.28-1.07-4.64-1.49-7.05-.2-1.2-.39-2.42-.53-3.64l-.11-.92-.05-.46c0-.19-.08-.43-.12-.64a4.64,4.64,0,0,0-.47-1.27,2.49,2.49,0,0,0-.37-.58c-.14-.18-.27-.36-.42-.53a8.36,8.36,0,0,0-4.25-2.12,15.8,15.8,0,0,0-4.38-.29,14.53,14.53,0,0,0-2.22.29,11.19,11.19,0,0,0-1.14.29c-.35.12-.7.23-1,.37a15.62,15.62,0,0,0-4,2.21c-.22.09-.45.18-.67.29a9.54,9.54,0,0,0-2.59,3.38A7.62,7.62,0,0,0,.55,142a.57.57,0,0,1-.2-.19,2.23,2.23,0,0,1-.2-.69,4.89,4.89,0,0,1,0-1.61c0-.14.06-.3.09-.46a8,8,0,0,0-.17,2.83c.16,1.37.35,2.75.57,4.12.43,2.74,1,5.47,1.57,8.17,1.23,5.41,2.79,10.74,4.55,16A143.42,143.42,0,0,0,13,185.62a99.42,99.42,0,0,0,8.42,14.57A75.13,75.13,0,0,0,32.52,213l1.58,1.43c.53.47,1.1.9,1.65,1.35s1.1.91,1.68,1.32l1.76,1.23L41,219.53c.6.4,1.24.72,1.86,1.09a38.1,38.1,0,0,0,3.79,2A56.33,56.33,0,0,0,63,227.57a69.43,69.43,0,0,0,17,.25c11.32-1.15,22.24-4.59,32.56-9.06,5.16-2.26,10.22-4.75,15.17-7.42s9.77-5.59,14.52-8.6c9.47-6.06,18.55-12.71,27.38-19.64q6.62-5.21,13.07-10.6t12.79-10.92l-2.34,2.32q6.43-5.85,12.74-11.83a6.42,6.42,0,0,1-1.15,1.33c16.65-14.62,32.58-31.21,47.8-46.45,0,.14-2.15,2.6.06.55,5.41-5.86,10.06-10.27,13.95-14,1.95-1.88,3.7-3.61,5.29-5.24a50,50,0,0,0,4.21-4.79c.57-.48,1.12-.63,0,.57l4.21-4.17c1.4-1.39,2.87-2.7,4.31-4.07l1.09-1,1.12-1c.74-.65,1.54-1.22,2.31-1.82l2.43-1.84c.71-.56,1.4-1.09,2.08-1.53l.23,0a3.68,3.68,0,0,0,.41-.15l.34-.16.24-.13,1-.52,1.95-1,1-.44.51-.21a2.31,2.31,0,0,1,.41-.16l.49-.16.47-.11.31-.06c-.12.22-.13.29-.1.29l-.07.1c-.45.85.49-.74-.06.3.41-.72,0,.25.42-.56h0l-.2.41a.64.64,0,0,1,0,.09l0,.09,0,.12.07-.2v0l0,0c-.06.18,0,.11,0,0a.79.79,0,0,0,0,.29c.32-.66,0,.35.39-.58-.05.21-.13.63,0,.26l0,.11s.08-.06.17-.26l0,.32s0,0,0,.08l0-.24,0,.22v0l0,.21a3.66,3.66,0,0,1,.23-.52.76.76,0,0,1,0,.14l0-.15s0-.09.05-.15c-.09.44.07-.17-.07.46.21-.71.29-.84.31-.64a.72.72,0,0,0,0,.17v.65c0-.2.07-.5.11-.8v0s0,0,0-.07l0-.07v0c0,.07,0,.09,0,.17,0-.28,0,.52,0,0V66l0-.23c0,.21-.05.53-.05.46.05.08.11,0,.16-.15l.08.23-.08-.24v0l.09.27c0-.14-.07-.21-.08-.27h0v0l.06.16-.06-.17a3.32,3.32,0,0,1,.17-.47l0,0v0h0c0,.2,0,.11.05,0h0v.27c0-.54.07.58,0-.25h0c0,.09,0,.17,0,.22s0-.15,0-.2l0,0,.34.22.71.45-.29.38h0l0,0,.05,0,.05,0h0l.24-.21h0a3.58,3.58,0,0,0-.42.43l-.09.08c-.68.68.65-.61-.19.21.6-.57-.18.2.52-.47l-.35.34s-.21.25-.23.28c.52-.49-.18.22.48-.41l-.05,0c-.1.11-.22.23-.18.21h0l0,0,.11-.1-.09.09a2.06,2.06,0,0,0,.33-.28h0l0,0,.07-.07h0l-.05,0,.05,0,.07.05c.13-.11.13-.09,0,0l0,0h0l.06-.09,0,.07h0l-.08.13h0v0l0,0h0l0,0h0l0,0-.1.17,0,0c-.16.28-.32.56-.17.31l.17-.31a.72.72,0,0,0,.15-.11c-.1.14-.08.16.41-.28,0,0,0,0,0,0l-.14.15.19-.2h0l-.08.08c-.23.28.19-.15.14-.07l-.28.32c.39-.43-.48.59.32-.32l-.28.32a1.13,1.13,0,0,1,.21-.16l.06.07a.2.2,0,0,1,0,.07l0,0a16.33,16.33,0,0,1,1.61,2.06l.81,1.22c.16.23.22.37.32.53l.3.63a54.25,54.25,0,0,1,2,5.45,72.74,72.74,0,0,1,2.22,11.55,169.75,169.75,0,0,1,1,23.77c-.2,8-.85,15.9-1.82,23.8-.48,3.95-1.08,7.85-1.85,11.73-.38,1.94-.81,3.87-1.27,5.79-.22,1-.46,1.92-.71,2.88l-.68,2.53,0,.12-.34.25-.7.48-1.45,1-2.91,2-5.9,4q-5.94,4-12.05,8c-8.11,5.36-16.47,10.61-24.83,16s-16.69,10.87-24.69,16.74a230,230,0,0,0-22.7,18.7v-.29q-3.45,3.21-6.74,6.62t-6.43,7a88.74,88.74,0,0,0-11.1,15.6,53.64,53.64,0,0,0-3.84,8.87,24.65,24.65,0,0,0-1.25,9.61,16.08,16.08,0,0,0,3.52,9,17.64,17.64,0,0,0,8.15,5.29,30.63,30.63,0,0,0,9.69,1.43,45.2,45.2,0,0,0,9.76-1.16A73.8,73.8,0,0,0,231,280.89a170.09,170.09,0,0,0,31.91-22.58c4.07-3.54,7.72-6.91,11.05-10.28s6.43-6.67,9.45-10.05,5.89-6.88,8.77-10.66,5.85-7.78,8.89-12.26l.52-.31a256.56,256.56,0,0,0,13.55-24q3.09-6.28,5.79-12.87,1.33-3.28,2.57-6.63c.4-1.12.81-2.24,1.19-3.37l1.08-3.26,12.35-7.83,12.43-8c8.25-5.35,16.41-10.76,24.35-16.26l-2,1.74c1.16-.93,3-2.15,4.95-3.49l6.15-4.09c3.21-2.13,5.84-3.91,6.06-4.39l4.78-3.13.73-.44.55-.4Q419.1,103.29,442,88l.83-.53c2.86-1.88,5.8-3.82,8.83-5.87l4.63-3.15,1.21-.85,2.9-2-1,.82,6.23-4.39q6.56-4.44,13.09-8.93l.85-.54c-.79.58-.37.38-2,1.56,11.13-7.08,22.55-15.09,33.8-23.63,2.82-2.11,5.57-4.36,8.36-6.55,1.38-1.11,2.79-2.18,4.13-3.35l2-1.72,2-1.76,3.89-3.47L533.62,22l.94-.81.23-.21.12-.1.06-.05s0-.06,0,0l0,.6c-.18,3.4-.37,6.79-.55,10.15l-.25-3.18c-.08,3.37-.2,7.43-.47,11.9s-.79,9.33-1.48,14.3c-1.36,10-3.42,20.34-5.1,29l0-1.09-1.57,8.81-.45.14c-4.92,22.45-10,43.5-16.39,65l0-1.22c-2.66,10.09-6,20.7-9.68,31.34s-7.83,21.27-11.46,31.71l.39-1.45c-2.42,6.58-4.75,13.12-6.89,19.68-1.1,3.27-2.09,6.56-3.09,9.83-.47,1.65-.94,3.29-1.4,4.94s-.91,3.29-1.32,4.94-.87,3.29-1.23,5-.73,3.32-1.1,5-.64,3.33-1,5l-.47,2.5c-.14.83-.25,1.67-.38,2.5-.25,1.67-.49,3.34-.73,5l-.54,5c-.37,3.35-.55,6.72-.66,10.08a143.85,143.85,0,0,0,3.13,34.91,136.27,136.27,0,0,0,3.9,14.61c1.42,4.35,7.64,4.59,11.3,3.5,3.23-1,9.52-4.21,8.05-8.69a136.5,136.5,0,0,1-5.43-60.28c2.59-20.51,8.73-40.4,15.75-59.77,5.85-16.11,12-32.05,17.21-48.38,5.16-16.14,9.82-32.43,14.09-48.82,4.08-15.65,7.8-31.41,10.92-47.28,2.43-12.43,4.68-25,5.48-37.68.43-6.78.87-13.58,1.17-20.37.13-3,.49-6.58-.13-9.71a2.3,2.3,0,0,0,.33.35C555.17,8.86,555.26,8.74,555.14,8.09ZM304.26,66.72l-.14.15c.09-.09,0,0-.05.06l.07-.13.18-.17a0,0,0,0,0,0,0Zm-218.93,146h0s0,.19,0,.33h0c0-.11,0-.21,0-.29l0,.19c0-.08,0-.17,0-.24h0v.12c.09.61,0-.39,0,.08l0-.2h0l0,.16A1.32,1.32,0,0,0,85.33,212.71Zm.06.3h0v0h0S85.38,213,85.39,213Zm-.08,0v0h0v0Zm0,.06v0h0v0Zm0,0h0v0h0Zm0,0h0l0-.08h0Zm0,0h0v0Zm0,0h0v0h0Zm0-.36h0v0Zm0,0h0v0Zm-.18-1.18v0Zm0,0h0v0h0ZM301.7,65.6c0,.07,0,.12-.05.17h0A1.42,1.42,0,0,1,301.7,65.6Zm-.08.23v.08l0,.11a1.15,1.15,0,0,0,0-.16Zm0,0v0C301.63,65.81,301.64,65.78,301.63,65.86Zm-79.9,204.77-.06,0,1.24-.82c0,.1.05.18,0,.05v-.05l.21-.14.19-.3.56-.27h0l-.13-.23-.06-.12.2.36.08,0,.56-.23a9.34,9.34,0,0,1,1.09-.37l.29-.11c-1,.57-2,1.12-3,1.6C225.79,268.6,222.4,270.27,221.73,270.63Zm54.69-49c-.18-.18-.43-.26-.87-.06l.24.42c-.54,0-.32.05-.65-.07-.78.89-1.38.62-2.11,1.11a0,0,0,0,1,0,0c.05.78-.7,1.21-1,1.51h-.31c-.57-.11-.07,1.68-.53.84a64.58,64.58,0,0,1-4.91,6.09c0,.5-1.38,1.51-.51,1.51-1,0-2.48,1.35-3,1.91,0-.07-.07-.15,0-.21-1.68.39-.51,1.85-2.29,2,.45.73-1.88,1.58-1.72,2.8-.24,0-.4-.09-.46-.24-1.71,1.72-3.82,3.39-5.33,4.77-.75,1.74-3.29,2.66-3.72,4.41-.53.35-1.25.77-1.95,1.3-.37.27-.7.56-1,.83a7.28,7.28,0,0,0-.92,1l.05-.21c-.73.66-1.57,1.37-2.3,2.11a10.26,10.26,0,0,0-1.7,2.11c-1.06-.4-1.61.26-2.47.53-.76,1.15-2.93,2.66-4.29,4.19-.51-.17-1.23,1.14-1.7.68a28.66,28.66,0,0,1-4.57,4.17,28.31,28.31,0,0,1-2.7,1.75c-.47.26-.94.52-1.43.75l-.72.34-.29.13-.08-.16s0,0,0,0h0l.1.17-.82.37.1.35,0-.15c0-.1-.08-.22-.1-.31l.14-.08.55-.32h0L223,268l-.7.25c-.92.33-1.93.7-2.78,1l.05-.08c-.52.65-.93,1.8-1.46,2.52-.1,0-.14-.12,0-.19-.95.56-2.15.41-3.08,1,0-.1,0-.1.08-.27a3.5,3.5,0,0,1-1.48.57,4.67,4.67,0,0,0-.8.26l-.2.1-.1.05,0,0s-.19.13-.3.23l-.11-.15-.66.45c0-.18-.08-.43.15-.53l-1.16.33-1.28.29h-.05l-.16,0-.32,0a5.05,5.05,0,0,1-.67.06l-.68.05h-.24l-.17.6a.14.14,0,0,1,0-.07c0-.06-.05-.15-.08-.23l0-.21h0l-.11,0h0a.07.07,0,0,0-.08,0l-.06,0-.66-.17-.12,0c0-.08,0-.12,0-.11s.06-.14.06-.11c.33-.9-.42.79,0-.31-.3.72,0-.18-.32.5h0c0-.12.09-.24.12-.34s-.06-.36-.11-.42c-.27.68,0-.36-.37.59,0-.21.08-.63-.07-.25l0-.12s-.1.06-.18.26l0,0a4.79,4.79,0,0,0,.08-.61,1.72,1.72,0,0,1-.25.5l-.07-.05a1.23,1.23,0,0,1,0-.24l0,.1,0,.11h0l-.25-.19a1.67,1.67,0,0,1-.36-.38l-.29-.4-.09-.12,0,0-.06-.06a.25.25,0,0,1,0-.09.62.62,0,0,1-.05-.14l-.16-.57-.32-1.22-.18-.63-.06-.17,0-.05a.25.25,0,0,1,0-.12l0-.13v-.27l0-.6c0-.39,0-.81.07-1.19s.09-.77.16-1.16.14-.77.23-1.16l.25-1.06v0l0,0,.07-.21.25-.73.24-.7c.07-.2.17-.41.28-.65.42-.89.8-1.8,1.29-2.67l0,.4c.17-.59.35-1.19.55-1.79.09.06.09.16.09.26a19.88,19.88,0,0,0,1.85-3l.43-.79a8.56,8.56,0,0,1,.44-.75,17.77,17.77,0,0,1,1-1.5c.08.07,0,.5.33.28,0-.05.06-.15.05-.17l-.07,0c-.06.05,0,0,0-.06a.42.42,0,0,1,.07-.13l.15-.19a3.49,3.49,0,0,1,.31-.34l.61-.54a1.16,1.16,0,0,0,.4-1.33c.09,0,.34.1.31.3a60.31,60.31,0,0,1,9.56-10.84c2.09-3.61,6.07-5.95,8.68-9.32l.12.18c3.64-4.11,8.68-7,13.09-10.53,1.92-1.33,3-2.47,4.94-3.85l.21.18c2.62-3.15,7.32-4,10.09-7.25l0,.46c.2-.78,2-1.17,1.54-1.78l.3-.2.37-.08c.07-.11.15-.21.22-.31,1.29-.87,2.59-1.72,3.89-2.58a9.45,9.45,0,0,0,2.54-1.66l.32-.21,0,.19c.19-.19.4-.38.61-.57l1.45-.93.11,0c-.07.09,0,.12-.15.29,2.9-.79,5-3.36,7.6-5l-.06.55c1-1.21,3.47-2.25,5-3.48v.24l.66-.77.24.34c2.13-1.32,3.92-2.88,5.95-4.23l.09.38a11.3,11.3,0,0,1,2.85-2.15c.53-.31,1.07-.61,1.59-.93a10.76,10.76,0,0,0,1.29-.92l-.11.23c1-.62,2-1.25,3-2l.82-.57.43-.31.22-.15.05,0s0,0,0,0l0,.09-.51,1.49c-.33,1-.71,2-1.17,3.22A186.24,186.24,0,0,1,276.42,221.61Zm-74.05,41.27Zm0,0Zm7.09,12.8-.28,0a7.37,7.37,0,0,0,.9-.22c.36-.11.73-.18,1.09-.31.72-.25,1.47-.42,2.16-.68s1.23-.49,1.85-.72l-1.84.8-.3.12c-.71.22-1.42.45-2.13.64C210.46,275.48,210,275.58,209.49,275.69ZM242.93,256l2.15-2.22a36.2,36.2,0,0,0,4.37-3.62c1.38-1.3,2.69-2.65,4-4a75.06,75.06,0,0,1,8.15-7.62,16.15,16.15,0,0,1,3.9-3.93,229.62,229.62,0,0,1-17.33,17.13l-.28.26-.28.23-1.13,1c-1.12.94-2.24,1.87-3.38,2.78l-.84.67Zm28.49-28.17-.39.46A1.36,1.36,0,0,1,271.42,227.81Zm1-1.21c0-.51,0-1,.38-.92l-.15-.28c.49-.75.32.13.85-.33.13-.23-.36-.42.11-.73a.49.49,0,0,0,.65,0C273.66,225.08,273.05,225.85,272.43,226.6Zm2.68-3.34-.41.51A2.69,2.69,0,0,1,275.11,223.26ZM513.1,20.8Zm-.2-.42.12.15v0c.06.06.11.13.17.2v0l-.16-.2h0l.06.18,0,.05h0l0,0v0l-.25-.27Zm.13.09s0,0,0,0l0,0Zm0-.15,0,0,.06.06h0l.23.26h0l-.1-.11.1.12h0v0h0c-.12-.15-.08-.11,0,0-.06-.07-.14-.16-.21-.26l0,0a.47.47,0,0,1,.1.1l.11.12,0,0h0l0,0L513,20.4h0Zm.09,0h0C513.3,20.58,513.2,20.47,513.07,20.34Zm0,.09-.06-.07h0Zm0-.1h0l.09.12Zm.18.31h0Zm0,0-.09-.1.09.1Zm0,0h0Zm-.15.13h0Zm.16-.14h0Zm0,0Zm0,0h0v0Zm-.06,0h0v0Zm-.27-.14-.11-.13h0Zm-.11-.13.29.34h0l-.23-.26,0,0,0,0Zm.29.34Zm.19-.16h0Zm-.18-.36s0,0,0,0v0h0l0,0h0l0,0,.06.08,0,0h0c0,.05,0,.07,0,.05l0,.08-.12-.14h0c.11.13,0,.06-.07-.05l0,0c0-.05-.08-.08-.06,0h0l-.05,0,0,0,0,0h0l0,0h0l0,.05Zm-.17.08.08.09h0l-.08-.1h0l.07.1h0l-.08-.09h0l.07.08h0l.21.25h0l-.21-.22h0l-.09-.09Zm-.14.11.29.33h0l-.3-.33Zm.29.33h0Zm21-17A21.23,21.23,0,0,1,540,1.55a23.23,23.23,0,0,0-3.21,1,26.55,26.55,0,0,0-4.1,2.12C533.13,4.41,533.62,4.11,534.12,3.83ZM515.2,18.19c6.17-5.45.95-.38,5.83-4.45,1.79-1.58.32-1,4.24-4.11.4.06,1.55-.74,3.11-1.91l.66-.49c-1.77,1.36-3.47,2.81-5.13,4.2-3.32,2.81-6.59,5.67-9.87,8.54l-.12.11-.28-.26h-.06a11.73,11.73,0,0,1,1-.68Zm-5.31,5.2c.45-.43.9-.83,1.32-1.25s.79-.8,1.28-1.26a1,1,0,0,0,.4,0l.18,0-.14,0c-.21.07-.56,0-.74.21l-.15.13h0l.24-.23.48-.44-.31-.27-.22-.19-.08-.09.11.1.23.2.27.25h0l0,0,.26.3-.15-.14-.15-.13h0l.1.09.2.18,0,0h0c-.69.61-1.34,1.18-.34.29l.33-.3-.35.31L511,22.58c-.47.39-1,.76-1.43,1.15Zm-11.55,8.93q-2.4,1.78-4.82,3.55C495.23,34.57,496.84,33.37,498.34,32.32ZM266.93,70.21a118.1,118.1,0,0,1,10.92-9.13,70.43,70.43,0,0,1,11.41-6.59,43.42,43.42,0,0,1,12.66-3.63,28,28,0,0,1,3.3-.22l.82,0c.28,0,.56,0,.83,0l1.65.09A24,24,0,0,1,315,52.07a20.8,20.8,0,0,1,5.78,3.23,23.28,23.28,0,0,1,4.53,4.82,38.18,38.18,0,0,1,5.41,12A79.78,79.78,0,0,1,333,85c.46,4.34.67,8.7.79,13s.18,8.7.11,13a220.4,220.4,0,0,1-1.85,26l-.23,1.61-.21,1.45c-.13.82-.26,1.7-.4,2.44l-.2,1.16,0,.15,0,.07v0l0,0,.25-.16.49-.33,2-1.29,10.6-6.92q21.58-14.07,43.09-27.65C394.07,103,401,98.51,408,93.92S422.23,84.69,429.53,80l.86-.56q-12.33,8.25-24.71,16.43Q368,120.79,330.14,145.3c2.87-15.5,3.62-31.58,3.22-47.25-.44-17-2.07-44.67-24.09-47-16.69-1.74-32,9.93-43.55,20.59-4.81,4.45-9.52,9-14.18,13.62,1.73-1.75,3.46-3.5,5.21-5.24Q261.76,75.08,266.93,70.21ZM88.2,212.13c.94-.22,1.87-.45,2.79-.7,1.84-.5,3.65-1.05,5.4-1.63.87-.29,1.73-.62,2.59-.93l2.52-1c1.69-.61,3.28-1.36,4.87-2l4.57-2c-2.57,1.26-5.16,2.46-7.79,3.59-1.4.6-2.81,1.18-4.23,1.73-.67.27-1.35.51-2,.78l-.71.24a81.55,81.55,0,0,1-9.35,2.63l-.6.11,0-.32h0l0,.32c-.35.07-.67.12-.84.14l.85-.11h0l-.85.13v0h0l-.05-.34.85-.12v0l.58-.1Zm-3-.61h0v-.08l0-.18v0C85.15,211.35,85.16,211.45,85.17,211.52Zm-.06-.46,0,.18v-.06l0-.3Zm0,.25v0l0-.13v-.07Zm-32.75-7.14,1.14.87,1.17.81c.79.54,1.56,1.1,2.37,1.59,1.62,1,3.31,1.87,5,2.7.83.4,1.73.7,2.61,1l2.68.84c.44.15.9.24,1.35.36s.91.25,1.34.31l.69.11.34.05h0l1.56.21,1,.13,1,.06,2,.11,1,.06c.27,0,.63-.05,1-.05a15.5,15.5,0,0,0,1.93-.11l1.92-.19c.64-.06,1.27-.11,1.91-.19l.26,0,.21.33-.63.09c-1.47.2-2.94.34-4.42.42-.65,0-1.32,0-2,.08h-.12c-1.35-.06-2.7-.12-4.05-.26-1.2-.12-2.38-.35-3.58-.5,2.3.29.2,0-.38-.12s-1.31-.32-2-.51c-1.1-.31-2.18-.66-3.25-1-.53-.19-1.05-.4-1.57-.61l-.54-.22A57.78,57.78,0,0,1,56.19,207c-.91-.6-1.79-1.24-2.66-1.9-.44-.33-.86-.66-1.29-1l-.91-.76-.71-.68C51.2,203.18,51.79,203.68,52.39,204.17ZM4,153.89A112.62,112.62,0,0,1,1.87,142a6.62,6.62,0,0,1,.2-3,7,7,0,0,1,1.57-2.59,13.41,13.41,0,0,1,5.13-3.14,14.66,14.66,0,0,1,5.94-.85,12.88,12.88,0,0,1,3,.48,6,6,0,0,1,2.62,1.45l.46.6.33.68c.07.24.11.49.17.73s.06.5.1.74c.11.88.24,1.76.37,2.63-.18-1.09-.34-2.18-.47-3.27-.54-4.52-8.29-4.4-11.31-3.5-4,1.19-8.61,3.94-8,8.68a134.48,134.48,0,0,0,5.44,24.29C6.09,161.93,5,157.93,4,153.89ZM301.18,65.63Zm.37.38,0-.07v.16h0l0,.18C301.53,66.21,301.54,66.11,301.55,66Zm.63-.36h0s0,0,0,0v0Zm1.59,1.11Zm0,0,.06,0-.05,0Zm0,0h0l0,0A.13.13,0,0,0,303.82,66.8Zm0-.14,0,0C303.77,66.78,303.8,66.73,303.85,66.66Zm.2.29,0,0,.06-.1h0l-.08.13Zm0,0,.07-.07-.07.07Zm0,0,.13-.13L304,67Z"/><path class="cls-1" d="M.8,137.38a7.16,7.16,0,0,1,.36-.66A7,7,0,0,0,.8,137.38Z"/><path class="cls-1" d="M.54,138l.09-.23Z"/><path class="cls-1" d="M.63,137.76c.05-.13.11-.25.17-.38Z"/><path class="cls-1" d="M511.11,20.22l0,0h0l.08-.08h0l0,0-.08.06h0s0,0,0,0h0l.11.13h0Z"/><path class="cls-1" d="M.23,139l.09-.35C.29,138.77.25,138.89.23,139Z"/><path class="cls-1" d="M.38,138.46c0-.16.1-.32.16-.47C.48,138.15.42,138.31.38,138.46Z"/><path class="cls-1" d="M.32,138.65l.06-.19Z"/><path class="cls-1" d="M529.39,4.73A20.93,20.93,0,0,0,527,6.42C527.89,5.76,528.62,5.24,529.39,4.73Z"/></g></g></svg>