<?xml version="1.0" standalone="no"?>
<!DOCTYPE svg PUBLIC "-//W3C//DTD SVG 20010904//EN"
 "http://www.w3.org/TR/2001/REC-SVG-20010904/DTD/svg10.dtd">
<svg version="1.0" xmlns="http://www.w3.org/2000/svg"
 width="300.000000pt" height="300.000000pt" viewBox="0 0 300.000000 300.000000"
 preserveAspectRatio="xMidYMid meet">
<metadata>
Created by potrace 1.11, written by Peter Selinger 2001-2013
</metadata>
<g transform="translate(0.000000,300.000000) scale(0.100000,-0.100000)"
fill="#000000" stroke="none">
<path d="M115 2900 c-8 -13 60 -158 111 -235 21 -33 43 -68 49 -77 20 -34 140
-205 220 -313 44 -60 85 -117 89 -125 14 -25 -29 22 -70 76 -22 28 -68 89
-104 135 -84 108 -121 160 -170 234 -22 33 -40 55 -40 49 0 -6 18 -35 39 -65
22 -30 52 -74 67 -99 15 -25 33 -49 40 -55 7 -5 33 -40 57 -77 25 -36 52 -74
61 -85 8 -10 63 -78 121 -151 59 -72 117 -140 128 -150 12 -9 49 -51 81 -92
115 -146 387 -399 501 -465 16 -10 3 -26 -103 -132 -181 -180 -441 -372 -766
-564 -176 -103 -266 -209 -268 -312 -1 -59 7 -92 35 -140 62 -105 192 -140
307 -83 88 44 152 123 264 323 54 98 120 207 145 243 92 130 319 407 417 508
l99 103 75 2 c113 2 142 -17 263 -178 126 -169 231 -305 254 -330 63 -70 150
-173 216 -257 42 -53 84 -105 95 -115 10 -10 66 -72 124 -139 185 -210 236
-247 321 -230 46 9 100 51 126 97 18 32 22 51 18 87 -5 49 -21 66 -227 256
-41 38 -141 132 -221 210 -218 211 -288 276 -434 401 -39 32 -122 109 -185
171 -63 61 -141 133 -172 160 -31 27 -57 54 -57 61 -2 20 222 239 268 262 30
16 66 23 123 26 102 5 162 27 246 90 67 51 117 107 412 454 173 204 176 209
162 223 -10 10 -86 -59 -376 -344 -143 -141 -186 -172 -186 -137 0 12 58 76
211 234 64 66 136 142 160 170 24 27 61 67 81 89 30 31 35 42 26 53 -13 16
-13 16 -142 -112 -45 -44 -128 -123 -185 -175 -57 -52 -127 -116 -155 -142
-28 -26 -54 -47 -58 -48 -42 -2 114 182 326 385 132 126 169 175 134 175 -14
-1 -51 -33 -194 -169 -79 -75 -145 -136 -299 -275 -44 -39 -62 -44 -72 -19 -4
11 7 28 38 56 100 92 167 156 220 212 31 33 63 66 70 74 8 8 44 45 82 83 40
42 73 68 81 65 8 -3 22 3 32 15 18 19 18 20 -5 39 -24 19 -24 19 -50 -9 -14
-15 -51 -48 -81 -72 -30 -25 -64 -53 -75 -63 -11 -10 -85 -73 -165 -140 -324
-273 -388 -358 -401 -535 -6 -93 -22 -152 -41 -152 -5 0 -3 10 4 23 17 31 19
42 22 127 3 87 8 104 48 185 43 85 70 116 220 253 220 200 207 187 173 164
-16 -11 -55 -44 -85 -72 -30 -28 -77 -69 -105 -90 -56 -43 -158 -154 -193
-209 -50 -79 -65 -125 -72 -222 -4 -65 -12 -107 -26 -132 -10 -20 -70 -88
-133 -152 l-114 -115 -141 143 c-77 79 -179 178 -226 219 -47 42 -128 118
-180 168 -117 113 -324 309 -404 381 -33 30 -91 84 -129 121 -38 36 -87 79
-110 95 -23 15 -46 33 -52 39 -5 6 -40 30 -77 54 -42 27 -64 48 -61 56 6 16
-42 20 -52 4z m262 -2726 c-3 -3 -12 -4 -19 -1 -8 3 -5 6 6 6 11 1 17 -2 13
-5z m40 0 c-3 -3 -12 -4 -19 -1 -8 3 -5 6 6 6 11 1 17 -2 13 -5z"/>
<path d="M140 2741 c16 -31 32 -36 18 -7 -6 14 -15 26 -20 26 -5 0 -4 -9 2
-19z"/>
<path d="M2399 2713 l-34 -38 35 30 c19 16 39 33 45 37 5 5 5 8 -1 8 -6 0 -26
-17 -45 -37z"/>
<path d="M2320 2650 c-9 -6 -10 -10 -3 -10 6 0 15 5 18 10 8 12 4 12 -15 0z"/>
</g>
</svg>
